# xmcd CD database file
#
# Track frame offsets:
#	150
#	14850
#	24833
#	35808
#	45586
#	59479
#	72614
#	88821
#	98949
#	109756
#	118016
#	132042
#
# Disc length: 1876 seconds
#
# Revision: 0
# Processed by: cddbd v1.5.1PL0 Copyright (c) Steve Scherf et al.
# Submitted via: CDex 1.50
#
DISCID=ac07520c
DTITLE=Les Reynolds - The Black Stallion
DYEAR=2005
DGENRE=Country
TTITLE0=The Magnificent Black Stallion
TTITLE1=I'm Not Broke
TTITLE2=You Keep Turning Me Down
TTITLE3=Make A Little Miss Into A Missus
TTITLE4=Hideaway Bay
TTITLE5=If You Leave Me
TTITLE6=My Love And Devotion
TTITLE7=Leave Me Alone In My Sorrow
TTITLE8=Hillbill Boy
TTITLE9=I Can't Sing
TTITLE10=The Swaggie
TTITLE11=The Black Stallion (Monologue)
EXTD=YEAR: 2005
EXTT0=
EXTT1=
EXTT2=
EXTT3=
EXTT4=
EXTT5=
EXTT6=
EXTT7=
EXTT8=
EXTT9=
EXTT10=
EXTT11=
PLAYORDER=
